<svg width="91" height="58" viewBox="0 0 91 58" fill="none" xmlns="http://www.w3.org/2000/svg">
<path d="M47.4783 24.8571C49.8258 24.8571 52.1207 24.1282 54.0726 22.7626C56.0246 21.3969 57.5459 19.4558 58.4443 17.1848C59.3427 14.9138 59.5777 12.4148 59.1198 10.0039C58.6618 7.59298 57.5313 5.37842 55.8713 3.64025C54.2113 1.90208 52.0964 0.718376 49.7939 0.238817C47.4914 -0.240742 45.1049 0.00538513 42.936 0.946074C40.7671 1.88676 38.9133 3.47976 37.6091 5.52363C36.3048 7.5675 35.6087 9.97044 35.6087 12.4286C35.6087 15.7248 36.8592 18.8861 39.0852 21.2169C41.3112 23.5477 44.3303 24.8571 47.4783 24.8571ZM47.4783 8.28572C48.2608 8.28572 49.0257 8.52869 49.6764 8.98392C50.327 9.43914 50.8342 10.0862 51.1336 10.8432C51.4331 11.6002 51.5114 12.4332 51.3588 13.2368C51.2061 14.0404 50.8293 14.7786 50.2759 15.358C49.7226 15.9374 49.0176 16.332 48.2501 16.4918C47.4827 16.6517 46.6871 16.5696 45.9642 16.2561C45.2412 15.9425 44.6233 15.4115 44.1885 14.7302C43.7538 14.0489 43.5217 13.248 43.5217 12.4286C43.5217 11.3298 43.9386 10.2761 44.6806 9.49914C45.4226 8.7222 46.4289 8.28572 47.4783 8.28572ZM63.7396 24.2771C66.0543 20.8014 67.2954 16.666 67.2954 12.4286C67.2954 8.19119 66.0543 4.05573 63.7396 0.580004C64.8773 0.195771 66.0654 7.74772e-05 67.2609 4.72908e-06C70.4089 4.72908e-06 73.4279 1.30944 75.6539 3.64025C77.8799 5.97106 79.1304 9.13231 79.1304 12.4286C79.1304 15.7248 77.8799 18.8861 75.6539 21.2169C73.4279 23.5477 70.4089 24.8571 67.2609 24.8571C66.0654 24.8571 64.8773 24.6614 63.7396 24.2771ZM47.4783 33.1429C23.7391 33.1429 23.7391 49.7143 23.7391 49.7143V58H71.2174V49.7143C71.2174 49.7143 71.2174 33.1429 47.4783 33.1429ZM31.6522 49.7143C31.6522 48.5129 32.9183 41.4286 47.4783 41.4286C61.3261 41.4286 63.067 47.8914 63.3043 49.7143M91 49.7143V58H79.1304V49.7143C79.038 46.6347 78.3606 43.6052 77.1378 40.8026C75.9151 38.0001 74.1715 35.4807 72.0087 33.3914C91 35.4214 91 49.7143 91 49.7143ZM25.0843 16.24L29.6739 22.0814L10.8804 41.76L0 29.3314L4.58957 24.5257L10.8804 31.0714L25.0843 16.24Z" fill="#AF8F6F"/>
</svg>
