<svg width="45" height="45" viewBox="0 0 45 45" fill="none" xmlns="http://www.w3.org/2000/svg">
<path d="M22.5 4.21875C18.8843 4.21875 15.3498 5.29093 12.3435 7.2997C9.33715 9.30847 6.994 12.1636 5.61034 15.5041C4.22667 18.8445 3.86464 22.5203 4.57003 26.0665C5.27541 29.6127 7.01653 32.8701 9.57321 35.4268C12.1299 37.9835 15.3873 39.7246 18.9335 40.43C22.4797 41.1354 26.1555 40.7733 29.4959 39.3897C32.8364 38.006 35.6915 35.6629 37.7003 32.6565C39.7091 29.6502 40.7813 26.1157 40.7813 22.5C40.7761 17.6531 38.8484 13.0061 35.4212 9.57886C31.9939 6.15157 27.3469 4.22387 22.5 4.21875ZM22.5 37.9688C19.4406 37.9688 16.4499 37.0615 13.906 35.3618C11.3622 33.6621 9.37954 31.2462 8.20875 28.4196C7.03795 25.5931 6.73162 22.4828 7.32849 19.4822C7.92535 16.4816 9.39861 13.7253 11.562 11.5619C13.7253 9.3986 16.4816 7.92534 19.4822 7.32848C22.4828 6.73161 25.5931 7.03795 28.4196 8.20874C31.2462 9.37953 33.6621 11.3622 35.3618 13.906C37.0615 16.4498 37.9688 19.4406 37.9688 22.5C37.9641 26.6011 36.3329 30.533 33.4329 33.4329C30.533 36.3329 26.6011 37.9641 22.5 37.9688ZM16.875 22.5C16.875 23.6806 17.2465 24.8313 17.9368 25.789C18.6271 26.7467 19.6012 27.463 20.7212 27.8363C21.8412 28.2097 23.0503 28.2212 24.1772 27.8691C25.3041 27.5171 26.2917 26.8195 27 25.875C27.224 25.5766 27.5574 25.3795 27.9268 25.3269C28.2961 25.2743 28.6713 25.3706 28.9696 25.5946C29.268 25.8186 29.4652 26.152 29.5177 26.5214C29.5703 26.8908 29.474 27.2659 29.25 27.5643C28.1872 28.9805 26.7058 30.0266 25.0155 30.5542C23.3253 31.0818 21.5119 31.0643 19.8321 30.5042C18.1524 29.944 16.6914 28.8696 15.6561 27.433C14.6209 25.9965 14.0638 24.2707 14.0638 22.5C14.0638 20.7293 14.6209 19.0035 15.6561 17.567C16.6914 16.1304 18.1524 15.056 19.8321 14.4958C21.5119 13.9357 23.3253 13.9182 25.0155 14.4458C26.7058 14.9734 28.1872 16.0195 29.25 17.4357C29.3609 17.5835 29.4417 17.7516 29.4876 17.9306C29.5335 18.1095 29.5438 18.2957 29.5177 18.4786C29.4917 18.6615 29.4299 18.8375 29.3359 18.9965C29.2418 19.1555 29.1174 19.2945 28.9696 19.4054C28.8219 19.5163 28.6538 19.597 28.4748 19.643C28.2959 19.6889 28.1097 19.6991 27.9268 19.6731C27.7439 19.6471 27.5679 19.5853 27.4089 19.4912C27.2499 19.3972 27.1109 19.2727 27 19.125C26.2917 18.1805 25.3041 17.4829 24.1772 17.1309C23.0503 16.7788 21.8412 16.7903 20.7212 17.1637C19.6012 17.537 18.6271 18.2533 17.9368 19.211C17.2465 20.1687 16.875 21.3194 16.875 22.5Z" fill="white"/>
</svg>
