<svg width="93" height="93" viewBox="0 0 93 93" fill="none" xmlns="http://www.w3.org/2000/svg">
<circle cx="46.5" cy="46.5" r="46.5" fill="#E5E5CB"/>
<g clip-path="url(#clip0_411_1859)">
<path fill-rule="evenodd" clip-rule="evenodd" d="M46.5 82.6562C52.8474 82.6655 59.0843 80.996 64.5781 77.8169V65.9688C64.5781 62.6494 63.2595 59.466 60.9124 57.1189C58.5652 54.7717 55.3819 53.4531 52.0625 53.4531H40.9375C37.6181 53.4531 34.4348 54.7717 32.0876 57.1189C29.7405 59.466 28.4219 62.6494 28.4219 65.9688V77.8169C33.9157 80.996 40.1526 82.6655 46.5 82.6562ZM72.9219 65.9688V71.1808C77.7318 66.0317 80.9323 59.5893 82.1301 52.6456C83.3278 45.7019 82.4705 38.5596 79.6636 32.0966C76.8567 25.6336 72.2225 20.1316 66.3307 16.2669C60.4389 12.4023 53.5462 10.3434 46.5 10.3434C39.4538 10.3434 32.5611 12.4023 26.6693 16.2669C20.7775 20.1316 16.1433 25.6336 13.3364 32.0966C10.5295 38.5596 9.6722 45.7019 10.8699 52.6456C12.0677 59.5893 15.2682 66.0317 20.0781 71.1808V65.9688C20.0765 61.6679 21.4043 57.4716 23.8797 53.9546C26.3552 50.4376 29.8573 47.7717 33.9065 46.322C31.806 43.906 30.4448 40.9368 29.9853 37.7685C29.5258 34.6003 29.9873 31.3667 31.3148 28.4535C32.6423 25.5403 34.7798 23.0704 37.4723 21.3385C40.1647 19.6066 43.2986 18.6857 46.5 18.6857C49.7014 18.6857 52.8353 19.6066 55.5277 21.3385C58.2202 23.0704 60.3577 25.5403 61.6852 28.4535C63.0127 31.3667 63.4742 34.6003 63.0147 37.7685C62.5552 40.9368 61.194 43.906 59.0935 46.322C63.1427 47.7717 66.6448 50.4376 69.1203 53.9546C71.5957 57.4716 72.9235 61.6679 72.9219 65.9688ZM46.5 91C58.3021 91 69.6209 86.3116 77.9663 77.9663C86.3116 69.6209 91 58.3021 91 46.5C91 34.6979 86.3116 23.3791 77.9663 15.0337C69.6209 6.68838 58.3021 2 46.5 2C34.6979 2 23.3791 6.68838 15.0337 15.0337C6.68838 23.3791 2 34.6979 2 46.5C2 58.3021 6.68838 69.6209 15.0337 77.9663C23.3791 86.3116 34.6979 91 46.5 91ZM54.8438 35.375C54.8437 37.5879 53.9647 39.7102 52.3999 41.2749C50.8352 42.8397 48.7129 43.7188 46.5 43.7188C44.2871 43.7188 42.1648 42.8397 40.6001 41.2749C39.0353 39.7102 38.1562 37.5879 38.1562 35.375C38.1562 33.1621 39.0353 31.0398 40.6001 29.4751C42.1648 27.9103 44.2871 27.0313 46.5 27.0312C48.7129 27.0312 50.8352 27.9103 52.3999 29.4751C53.9647 31.0398 54.8438 33.1621 54.8438 35.375Z" fill="#3C2A21"/>
</g>
<defs>
<clipPath id="clip0_411_1859">
<rect width="89" height="89" fill="white" transform="translate(2 2)"/>
</clipPath>
</defs>
</svg>
