<svg width="92" height="89" viewBox="0 0 92 89" fill="none" xmlns="http://www.w3.org/2000/svg">
<path d="M92 44.5C92 69.0767 71.4051 89 46 89C20.5949 89 0 69.0767 0 44.5C0 19.9233 20.5949 0 46 0C71.4051 0 92 19.9233 92 44.5Z" fill="#D9D9D9"/>
<path d="M37.9105 62.4789C37.3867 61.9483 37.0952 61.2314 37.0999 60.4859C37.1047 59.7404 37.4053 59.0273 37.9357 58.5035L51.941 44.675L38.1126 30.6698C37.6038 30.1362 37.3249 29.4243 37.336 28.6871C37.3471 27.95 37.6473 27.2467 38.1718 26.7288C38.6964 26.2108 39.4035 25.9196 40.1407 25.9179C40.8779 25.9162 41.5863 26.2041 42.1132 26.7196L57.9168 42.7252C58.4405 43.2558 58.732 43.9726 58.7273 44.7181C58.7226 45.4636 58.4219 46.1767 57.8915 46.7006L41.8859 62.5042C41.3553 63.0279 40.6384 63.3194 39.8929 63.3147C39.1474 63.3099 38.4343 63.0093 37.9105 62.4789Z" fill="#3C2A21"/>
</svg>
